<svg xmlns="http://www.w3.org/2000/svg" xmlns:xlink="http://www.w3.org/1999/xlink" baseProfile="tiny" data-name="圖層 2" viewBox="0 0 483.1 329.1"><defs><linearGradient id="a" x1="-25.2" x2="436.2" y1="288.3" y2="248.5" data-name="未命名漸層 269" gradientUnits="userSpaceOnUse"><stop offset="0" stop-color="#045efd"/><stop offset=".1" stop-color="#0460fc"/><stop offset=".2" stop-color="#046afb"/><stop offset=".3" stop-color="#0479f8"/><stop offset=".4" stop-color="#048ff5"/><stop offset=".5" stop-color="#04acf1"/><stop offset=".6" stop-color="#04ceec"/><stop offset=".6" stop-color="#04e1ea"/><stop offset=".6" stop-color="#2fe3e7"/><stop offset=".7" stop-color="#9aeae2"/><stop offset=".8" stop-color="#fff0dd"/><stop offset=".8" stop-color="#fdcdb2"/><stop offset=".8" stop-color="#fca984"/><stop offset=".8" stop-color="#fa895c"/><stop offset=".9" stop-color="#f96f3c"/><stop offset=".9" stop-color="#f95b22"/><stop offset=".9" stop-color="#f84d11"/><stop offset="1" stop-color="#f84406"/><stop offset="1" stop-color="#f84203"/></linearGradient><linearGradient xlink:href="#a" id="b" x1="-23.4" x2="438" y1="309.3" y2="269.5" data-name="未命名漸層 269"/><linearGradient xlink:href="#a" id="c" x1="-25.3" x2="436" y1="286.5" y2="246.8" data-name="未命名漸層 269"/><linearGradient xlink:href="#a" id="d" x1="-24.8" x2="436.6" y1="292.8" y2="253.1" data-name="未命名漸層 269"/><linearGradient xlink:href="#a" id="e" x1="-24.2" x2="437.1" y1="299.4" y2="259.7" data-name="未命名漸層 269"/><linearGradient xlink:href="#a" id="f" x1="-27.2" x2="434.1" y1="264.5" y2="224.7" data-name="未命名漸層 269"/><linearGradient xlink:href="#a" id="g" x1="-24.6" x2="436.8" y1="295.3" y2="255.5" data-name="未命名漸層 269"/><linearGradient xlink:href="#a" id="h" x1="158.1" x2="323.7" y1="134.6" y2="37.5" data-name="未命名漸層 269"/></defs><path fill="url(#a)" d="M56.2 250.5h16.6l7.2 35.2 9.1-35.2h15.5l9.5 35.3 7.2-35.3h16.5l-16.5 55.9H106l-9.1-33.6-8.8 33.6H72.8z"/><path fill="url(#b)" d="M194.3 250.5h18.1l9.2 37.2 8.6-37.2h16.9l-17.7 59.7c-2 6.8-4.1 11.4-6.2 13.8-3 3.4-7.5 5.1-13.6 5.1s-6.3-.4-11.5-1.3l-1.3-15c2.5 1 5.2 1.5 8.2 1.5s3.7-.6 4.9-1.7c1.2-1.2 2.3-3.2 3.2-6.2z"/><path fill="url(#c)" d="M322.7 294c2.7-5.1 4-10.8 4-16.9s-1-9.9-3-14c-1.9-4-5.1-7.5-9.4-10.2-4.5-2.9-12.3-5.8-23.1-8.7-5.1-1.3-8.3-2.8-9.9-4.6-1.7-1.9-2.6-4-2.6-6.4s1-5.6 3.1-7.7c2.1-2.2 5-3.3 8.8-3.3s7.9 1.4 10.5 4c2.1 2.1 3.5 5.1 4.3 9l18.3-1.3c-1.2-8.4-4.1-14.6-8.5-18.5-5-4.4-12.4-6.6-22.1-6.6s-14.4 1.2-18.9 3.7c-4.5 2.4-7.7 5.7-9.9 9.9-2.2 4.3-3.4 8.9-3.4 13.6 0 7.4 2.1 13.2 6.4 17.9q6.6 7.2 22.5 11.7c7.5 2.1 12.1 4.2 14.4 6.8 2.4 2.6 3.5 5.7 3.5 9.1s-1.3 6.7-3.7 9.4c-2.5 2.7-6.1 4.1-10.5 4.1s-10.6-2.6-13.7-7.6c-1.5-2.4-2.6-5.6-3.3-9.7l-18.5 1.5c1 8.5 3.8 15.6 8.3 21.2 4.8 6 13.8 9 26.8 9s13.6-1.3 18.4-4c4.7-2.6 8.4-6.4 11.1-11.5Z"/><path fill="url(#d)" d="M394.1 264.1v-15.2h-39.6v-22.2h42.7v-16.2h-62.4v97.2h63.7v-17.5h-44v-26.1z"/><path fill="url(#e)" d="M478.4 286.8c3.1-7.3 4.6-16.9 4.6-28.5s-3.5-28.2-10.5-36.8c-6.9-8.6-16.5-12.7-29.4-12.7s-22 4.2-29 13-10.6 21.4-10.6 37.4 1.8 21.2 5.4 28.8c3.5 7.4 8.1 12.9 13.7 16.3q8.4 5.1 21.6 5.1c13.2 0 15.6-2 21.2-5.9s10-9.6 13-16.7m-19.9-3.3c-3.6 5.3-8.6 8-15.1 8s-11.4-2.7-15-8.1c-3.5-5.1-5.1-12.9-5.1-24s1.7-19.1 5.2-24.2c3.7-5.4 8.6-8.1 14.8-8.1s11.4 2.7 15.1 7.9c3.5 5 5.2 12.5 5.2 22.9s-1.6 20.6-5 25.6Z"/><path fill="url(#f)" d="M26.1 211.8c-3 11.1-13.2 19.3-25.3 19.3H.1v14.5h16.4v60.8h27.4v-94.7H26.1Z"/><path fill="url(#g)" d="M189.3 300.7c-.3-1.5-.4-3.6-.4-6.2v-24.7c0-2.6-.4-5.4-1.3-8.3-.8-2.9-2-5.1-3.5-6.7q-3.15-3.45-7.8-4.5c-2.8-.6-6.3-1-10.7-1.1h-1.3c-17.3.5-22 10.5-23.3 15.9-.5 2-.5 3.4-.5 3.4h16.6s.4-6.9 8-6.6c5 .2 6.4 3.2 6.7 5.2v1.8c-2.1 1.1-4.2 1.9-6.1 2.6-1.9.6-6.1 1.8-12.5 3.4-5.4 1.3-9 3.4-11 6.1q-3 4.05-3 10.5c0 6.45 1.4 8.3 4.1 11.4 2.8 3.1 6.8 4.6 12.1 4.6s7.5-.8 10.6-2.3c2.2-1.2 4.4-3.1 6.7-5.8q.3 2.4.6 3.6c.2.8.6 1.9 1.3 3.3h16.1c-.9-2.3-1.5-4.2-1.7-5.7Zm-17.1-17.4c0 2.7-.3 4.8-1 6.5s-1.9 3.1-3.5 4.2c-1.6 1.2-3.4 1.7-5.3 1.7s-3.2-.5-4.1-1.6-1.4-2.4-1.4-4.1.5-2.8 1.4-3.9 3.1-2.3 6.6-3.4c2.6-.8 5-1.7 7.4-2.8v3.4Z"/><path fill="url(#h)" d="M263.6 0h-44.1c-35 0-63.6 28.6-63.6 63.6v44.1c0 35 28.6 63.6 63.6 63.6h44.1c35 0 63.6-28.6 63.6-63.6V63.6c0-35-28.6-63.6-63.6-63.6m27.8 134.4h-24.1l-24.1-39.5-24.1 39.5H195v-.2c.1 0 0 0 0 0V84.9h-13.3V73.1h.6c9.8 0 18.1-6.6 20.5-15.7h14.4V98l1.9-3.1 12.1-19.7 12.1-19.7L255.2 75l.2.3.4.7 11.6 19 1.3 2.1V57.6h-11.5l22.3-36.8 22.3 36.8h-11.5v55.1c0 17.8 1.3 21.8 1.3 21.8Z"/></svg>