<svg xmlns="http://www.w3.org/2000/svg" baseProfile="tiny" data-name="圖層 2" viewBox="0 0 171.4 171.4"><defs><linearGradient id="a" x1="2.3" x2="167.8" y1="134.6" y2="37.5" data-name="未命名漸層 269" gradientUnits="userSpaceOnUse"><stop offset="0" stop-color="#045efd"/><stop offset=".1" stop-color="#0460fc"/><stop offset=".2" stop-color="#046afb"/><stop offset=".3" stop-color="#0479f8"/><stop offset=".4" stop-color="#048ff5"/><stop offset=".5" stop-color="#04acf1"/><stop offset=".6" stop-color="#04ceec"/><stop offset=".6" stop-color="#04e1ea"/><stop offset=".6" stop-color="#2fe3e7"/><stop offset=".7" stop-color="#9aeae2"/><stop offset=".8" stop-color="#fff0dd"/><stop offset=".8" stop-color="#fdcdb2"/><stop offset=".8" stop-color="#fca984"/><stop offset=".8" stop-color="#fa895c"/><stop offset=".9" stop-color="#f96f3c"/><stop offset=".9" stop-color="#f95b22"/><stop offset=".9" stop-color="#f84d11"/><stop offset="1" stop-color="#f84406"/><stop offset="1" stop-color="#f84203"/></linearGradient></defs><path fill="url(#a)" d="M107.8 0H63.7C28.6 0 0 28.6 0 63.6v44.1c0 35 28.6 63.6 63.6 63.6h44.1c35 0 63.6-28.6 63.6-63.6V63.6c.1-35-28.6-63.6-63.5-63.6m27.7 134.4h-24.1L87.3 94.9l-24.1 39.5H39.1v-.2c.1 0 0 0 0 0V84.9H25.8V73.1h.6c9.8 0 18.1-6.6 20.5-15.7h14.4V98l1.9-3.1 12.1-19.7 12.1-19.7L99.3 75l.2.3.4.7 11.6 19 1.3 2.1V57.6h-11.5l22.3-36.8 22.3 36.8h-11.5v55.1c0 17.8 1.3 21.8 1.3 21.8Z"/></svg>